<svg width="1208" height="188" viewBox="0 0 1208 188" fill="none" xmlns="http://www.w3.org/2000/svg">
<path d="M1188.84 0C1201.64 0 1207.84 5.8 1207.84 13C1207.84 19 1204.64 24.4004 1198.04 24.4004C1193.04 24.4004 1191.04 21.4002 1190.24 17.4004C1189.44 13.4004 1189.84 9.79998 1188.24 6C1174.44 6 1165.24 15.2 1156.24 48.7998L1155.24 52.7998H1177.24L1175.44 59H1153.44L1134.24 130.6C1124.44 167.199 1112.64 187.2 1090.24 187.2C1079.84 187.2 1070.84 180.4 1070.84 171.4C1070.84 166 1073.64 161 1080.04 161C1092.04 161 1088.04 174.6 1092.04 181C1105.44 181 1113.04 166 1121.44 135.8L1142.64 59H1120.04L1121.84 52.7998H1144.24L1145.24 49.2002C1154.24 16.2003 1169.24 6.72688e-05 1188.84 0ZM660.852 97.5605C664.812 108.361 668.772 120.781 671.112 129.061H671.833C674.353 120.781 678.852 108.54 682.812 97.7402L700.272 50.4004H712.873L674.712 153.181C669.493 167.401 662.292 176.4 641.592 176.4H634.033V165.96H641.592C653.652 165.96 658.692 162.9 663.732 149.4L665.712 144L630.432 50.4004H643.572L660.852 97.5605ZM186.381 120.601C183.182 129.8 182.181 135.8 187.781 135.8C191.581 135.8 198.381 129 205.381 117L209.381 118.2C202.981 132 193.781 145.2 183.381 145.2C178.381 145.2 173.382 143.2 173.381 135.4C173.381 128.6 179.581 114.4 192.381 88H189.781C170.981 119.8 153.981 146.8 137.181 146.8C127.581 146.8 120.781 139.8 120.781 126.4C120.781 98.8005 158.581 49.2007 186.781 49.2002C191.781 49.2002 195.981 50.4006 199.181 52.6006L201.781 45.2002H212.181L186.381 120.601ZM985.792 46.7998C997.591 46.7999 1005.79 51.2003 1005.79 59.2002C1005.79 64.4 1003.19 68.5996 997.191 68.5996C992.591 68.5995 990.791 65.8 989.191 62.2002C987.591 58.8002 986.992 54.5996 983.792 50.5996C970.792 51.5996 964.391 58.6002 964.391 67.2002C964.391 72.5999 965.992 75.9999 972.391 86.3994L979.591 98.2002C986.191 108.8 988.792 114 988.792 121.2C988.791 136.8 974.991 146.8 958.391 146.8C946.591 146.8 938.191 142.399 938.191 134.399C938.191 129.2 940.992 125 946.792 125C951.591 125 953.392 127.8 954.792 131.399C956.392 134.799 956.991 139 960.191 143C973.391 142 979.591 134.999 979.591 126.399C979.591 121 978.191 117.6 971.792 107.2L964.591 95.3994C957.992 84.7996 955.191 79.5993 955.191 72.3994C955.191 56.7996 969.192 46.7998 985.792 46.7998ZM1055.9 46.7998C1066.7 46.7998 1074.5 51.1998 1074.5 61.7998C1074.5 79.5997 1053.9 96.6001 1013.5 98.2002C1011.7 104.2 1010.7 110.2 1010.7 115.8C1010.7 130.4 1018.5 136 1028.7 136C1039.3 136 1049.1 128.199 1055.5 115.399L1060.1 116.8C1052.9 132.4 1044.5 146.8 1025.5 146.8C1011.1 146.8 1000.5 139 1000.5 120.2C1000.5 89.2003 1026.7 46.8 1055.9 46.7998ZM459.497 47.7002C487.397 47.7002 506.117 69.3002 506.117 97.2002C506.117 125.1 487.397 146.7 459.497 146.7C431.597 146.7 412.878 125.1 412.878 97.2002C412.878 69.3003 431.597 47.7004 459.497 47.7002ZM756.731 47.7002C784.631 47.7002 803.351 69.3002 803.351 97.2002C803.351 125.1 784.631 146.7 756.731 146.7C728.831 146.7 710.111 125.1 710.111 97.2002C710.111 69.3003 728.831 47.7003 756.731 47.7002ZM824.732 110.7C824.732 127.8 831.932 135.9 848.131 135.9C862.531 135.9 875.131 126.001 875.131 105.301V50.4004H887.372V144H875.131V132.301C869.731 141.301 858.931 146.7 845.431 146.7C824.911 146.7 812.492 135 812.492 112.5V50.4004H824.732V110.7ZM1083.02 118.2C1080.22 126.6 1079.62 129.2 1079.62 131.2C1079.62 134.6 1081.02 135.8 1083.62 135.8C1089.02 135.8 1095.82 131 1106.62 111.2L1111.02 112.4C1099.22 138.2 1089.62 145.8 1080.02 145.8C1073.22 145.8 1068.62 142 1068.62 134.8C1068.62 131.2 1069.82 127 1072.82 118.2L1104.02 25.7998C1107.42 15.9998 1105.42 11.6 1097.42 11L1089.82 10.4004L1090.82 7.2002L1118.82 2H1122.22L1083.02 118.2ZM1176.3 124.2C1182.3 124.2 1187.3 128.4 1187.3 134.8C1187.3 141.4 1182.3 145.8 1176.3 145.8C1170.5 145.8 1165.5 141.4 1165.5 134.8C1165.5 128.4 1170.5 124.2 1176.3 124.2ZM83.6002 8C101.6 8.00002 127.2 10.8001 127.2 37.5996C127.2 53.7996 117.6 72.7997 76.8004 73.7998V74.2002C96.4002 75.4002 115 80.2001 115 103.8C115 124.8 100.2 144 58.8004 144H0.399994L1.80038 138.8C16.0001 138.2 22.7998 136.799 27.1998 121.6L53.8004 28.7998C54.6003 25.9999 54.8004 23.7999 54.8004 22C54.8004 13.8 48.3996 13.2 37.9996 13L39.4 8H83.6002ZM262.646 47.7002C283.166 47.7003 295.586 59.4005 295.586 81.9004V144H283.346V83.7002C283.346 66.4202 276.146 58.1406 259.946 58.1406C245.546 58.1406 232.046 68.2206 232.046 89.1006V144H219.806V50.4004H232.046V63C238.165 52.92 249.146 47.7002 262.646 47.7002ZM323.229 92.7002L364.629 50.4004H380.83L335.83 95.4004L384.429 144H367.33L323.229 98.0996V144H310.99V18H323.229V92.7002ZM559.177 47.7002C579.697 47.7003 592.117 59.4005 592.117 81.9004V144H579.878V83.7002C579.878 66.4202 572.677 58.1406 556.477 58.1406C542.077 58.1406 528.577 68.2206 528.577 89.1006V144H516.337V50.4004H528.577V63C534.697 52.92 545.677 47.7002 559.177 47.7002ZM944.556 60.8398H936.816C924.216 60.8399 916.116 68.9398 916.116 85.1396V144H903.877V50.3994H916.116V61.1992C920.616 53.0993 927.817 48.5996 940.417 48.5996H944.556V60.8398ZM38.8004 119.2C38.0004 122 37.8004 124.4 37.8004 126.6C37.8004 135.2 44.2 138.4 62.4 138.4C91.6 138.4 102.6 120.6 102.6 104C102.6 82 83.9998 77 60.1998 77H50.8004L38.8004 119.2ZM459.497 58.1406C439.517 58.1408 425.117 74.7003 425.117 97.2002C425.117 119.7 439.517 136.26 459.497 136.26C479.477 136.26 493.878 119.7 493.878 97.2002C493.878 74.7002 479.477 58.1406 459.497 58.1406ZM756.731 58.1406C736.751 58.1408 722.351 74.7003 722.351 97.2002C722.351 119.7 736.751 136.26 756.731 136.26C776.711 136.26 791.111 119.7 791.111 97.2002C791.111 74.7002 776.711 58.1406 756.731 58.1406ZM180.181 56C166.381 56.8 131.582 94.4 131.582 124C131.582 134.2 137.182 135.8 140.582 135.8C154.382 135.799 173.382 109.6 197.381 64.2002C192.981 59.0002 185.781 56.4 180.181 56ZM1054.3 52C1039.5 52 1022.9 72.0002 1015.1 93.2002C1047.1 90.6002 1063.9 74.6001 1063.9 61.2002C1063.9 55.6003 1060.7 52.0001 1054.3 52ZM52.6002 70.5996H65.8004C102.2 70.5995 114.8 55.6001 114.8 36.4004C114.8 16.4004 97.5996 13.5996 82.9996 13.5996H68.9996L52.6002 70.5996Z" fill="url(#paint0_linear_1371_29975)"/>
<defs>
<linearGradient id="paint0_linear_1371_29975" x1="190.859" y1="83.8381" x2="1256.35" y2="83.8382" gradientUnits="userSpaceOnUse">
<stop stop-color="#FF004D"/>
<stop offset="1" stop-color="#990070"/>
</linearGradient>
</defs>
</svg>
