<svg width="368" height="145" viewBox="0 0 368 145" fill="none" xmlns="http://www.w3.org/2000/svg">
<path d="M359.204 58.1943C365.129 58.1943 368 60.88 368 64.2129C368 66.9903 366.518 69.4902 363.463 69.4902C361.149 69.4901 360.223 68.1006 359.853 66.249C359.482 64.3976 359.667 62.7305 358.927 60.9717C352.539 60.9717 348.279 65.2314 344.113 80.7852L343.65 82.6367H353.835L353.001 85.5068H342.817L333.929 118.651C329.392 135.594 323.93 144.853 313.561 144.853C308.747 144.852 304.58 141.705 304.58 137.539C304.58 135.04 305.877 132.725 308.839 132.725C314.394 132.725 312.543 139.02 314.395 141.982C320.597 141.982 324.116 135.038 328.004 121.059L337.817 85.5068H327.355L328.188 82.6367H338.559L339.021 80.9697C343.188 65.6942 350.131 58.1945 359.204 58.1943ZM114.792 103.356C116.625 108.356 118.458 114.106 119.541 117.938H119.875C121.042 114.106 123.124 108.44 124.957 103.44L133.04 81.5254H138.873L121.208 129.104C118.792 135.687 115.458 139.854 105.876 139.854H102.376V135.021H105.876C111.459 135.021 113.792 133.604 116.125 127.354L117.042 124.854L100.71 81.5254H106.793L114.792 103.356ZM265.211 79.8594C270.673 79.8594 274.47 81.8965 274.47 85.5996C274.47 88.0066 273.266 89.9512 270.488 89.9512C268.359 89.951 267.526 88.6546 266.785 86.9883C266.045 85.4144 265.766 83.4697 264.285 81.6182C258.268 82.0812 255.305 85.3219 255.305 89.3027C255.305 91.8024 256.046 93.3764 259.009 98.1904L262.342 103.653C265.397 108.56 266.6 110.967 266.601 114.3C266.601 121.521 260.212 126.15 252.527 126.15C247.065 126.15 243.177 124.114 243.177 120.411C243.177 118.004 244.473 116.06 247.157 116.06C249.379 116.06 250.213 117.355 250.861 119.021C251.602 120.595 251.879 122.54 253.36 124.392C259.471 123.929 262.342 120.688 262.342 116.707C262.342 114.208 261.693 112.633 258.73 107.819L255.397 102.356C252.343 97.4501 251.046 95.0427 251.046 91.71C251.046 84.4888 257.527 79.8596 265.211 79.8594ZM297.665 79.8594C302.664 79.8594 306.275 81.8961 306.275 86.8027C306.275 95.0426 296.74 102.913 278.038 103.653C277.205 106.431 276.741 109.209 276.741 111.801C276.741 118.559 280.353 121.151 285.074 121.151C289.981 121.151 294.518 117.541 297.48 111.615L299.609 112.264C296.276 119.485 292.388 126.15 283.593 126.15C276.927 126.15 272.02 122.54 272.02 113.837C272.02 99.4867 284.148 79.8598 297.665 79.8594ZM21.5811 80.2764C34.4964 80.2764 43.162 90.2751 43.1621 103.19C43.162 116.106 34.4964 126.105 21.5811 126.105C8.66593 126.105 8.19125e-05 116.106 0 103.19C7.34999e-05 90.2752 8.66592 80.2765 21.5811 80.2764ZM159.176 80.2764C172.091 80.2764 180.757 90.2753 180.757 103.19C180.757 116.106 172.091 126.105 159.176 126.105C146.26 126.105 137.595 116.106 137.595 103.19C137.595 90.2753 146.261 80.2764 159.176 80.2764ZM190.654 109.439C190.654 117.355 193.987 121.105 201.486 121.105C208.152 121.105 213.985 116.522 213.985 106.939V81.5254H219.651V124.854H213.985V119.438C211.486 123.605 206.486 126.104 200.236 126.104C190.737 126.104 184.988 120.688 184.988 110.272V81.5254H190.654V109.439ZM353.402 115.689C356.18 115.689 358.495 117.633 358.495 120.596C358.495 123.651 356.18 125.688 353.402 125.688C350.718 125.688 348.403 123.651 348.403 120.596C348.404 117.634 350.718 115.69 353.402 115.689ZM310.22 112.911C308.924 116.799 308.646 118.004 308.646 118.93C308.646 120.503 309.295 121.059 310.498 121.059C312.998 121.058 316.145 118.836 321.145 109.671L323.182 110.227C317.719 122.17 313.275 125.688 308.831 125.688C305.683 125.687 303.554 123.929 303.554 120.596C303.554 118.929 304.109 116.984 305.498 112.911L319.941 70.1377C321.515 65.6014 320.589 63.5648 316.886 63.2871L313.368 63.0088L313.831 61.5273L326.792 59.1201H328.366L310.22 112.911ZM67.7246 80.2764C77.2236 80.2764 82.9736 85.6928 82.9736 96.1084V124.855H77.3076V96.9414C77.3076 88.9422 73.9738 85.1094 66.4746 85.1094C59.8088 85.1096 53.5596 89.7759 53.5596 99.4414V124.855H47.8936V81.5264H53.5596V87.3584C56.3926 82.6924 61.4755 80.2764 67.7246 80.2764ZM246.123 86.3584H242.54C236.707 86.3585 232.958 90.1084 232.958 97.6074V124.854H227.292V81.5254H232.958V86.5254C235.041 82.776 238.374 80.6925 244.206 80.6924H246.123V86.3584ZM21.5811 85.1094C12.3322 85.1095 5.66609 92.775 5.66602 103.19C5.66609 113.606 12.3322 121.272 21.5811 121.272C30.8301 121.272 37.496 113.606 37.4961 103.19C37.496 92.7749 30.8301 85.1094 21.5811 85.1094ZM159.176 85.1094C149.927 85.1095 143.261 92.7751 143.261 103.19C143.261 113.606 149.927 121.272 159.176 121.272C168.425 121.272 175.091 113.606 175.091 103.19C175.091 92.775 168.425 85.1094 159.176 85.1094ZM296.925 82.2666C290.074 82.2667 282.389 91.5252 278.778 101.339C293.591 100.135 301.369 92.7284 301.369 86.5254C301.369 83.9333 299.887 82.2666 296.925 82.2666ZM86.0938 52.125C84.6125 56.3837 84.1499 59.1611 86.7422 59.1611C88.5013 59.1607 91.6485 56.0126 94.8887 50.458L96.7412 51.0137C93.7786 57.4019 89.5194 63.5126 84.7051 63.5127C82.3905 63.5127 80.0762 62.5863 80.0762 58.9756C80.0763 55.8277 82.9459 49.2539 88.8711 37.0332H87.668C78.9652 51.7539 71.0953 64.2528 63.3184 64.2529C58.8744 64.2529 55.7266 61.0127 55.7266 54.8096C55.7266 42.033 73.2251 19.0723 86.2793 19.0723C88.5937 19.0723 90.5383 19.6281 92.0195 20.6465L93.2227 17.2207H98.0371L86.0938 52.125ZM38.5146 0C46.8471 2.98458e-06 58.6981 1.29617 58.6982 13.7021C58.6982 21.2014 54.2538 29.9969 35.3672 30.46V30.6455C44.4402 31.201 53.0498 33.423 53.0498 44.3477C53.0497 54.0689 46.1988 62.957 27.0342 62.957H0L0.648438 60.5498C7.22148 60.2721 10.3695 59.6237 12.4062 52.5879L24.7197 9.62891C25.0901 8.33274 25.1826 7.31372 25.1826 6.48047C25.1824 2.6849 22.2194 2.40703 17.4053 2.31445L18.0537 0H38.5146ZM121.397 18.3779C130.896 18.3779 136.646 23.7943 136.646 34.21V62.957H130.98V35.043C130.98 27.0438 127.647 23.2109 120.147 23.2109C113.482 23.2112 107.232 27.8775 107.232 37.543V62.957H101.566V19.6279H107.232V25.46C110.065 20.794 115.148 18.378 121.397 18.3779ZM149.443 39.209L168.607 19.6279H176.106L155.275 40.459L177.773 62.957H169.857L149.443 41.709V62.957H143.777V4.62988H149.443V39.209ZM17.7764 51.4766C17.406 52.7727 17.3135 53.8839 17.3135 54.9023C17.3136 58.8832 20.2763 60.3643 28.7012 60.3643C42.2178 60.3641 47.3094 52.1247 47.3096 44.4404C47.3096 34.2563 38.6999 31.9414 27.6826 31.9414H23.3311L17.7764 51.4766ZM83.2236 22.2197C76.8354 22.5901 60.7258 39.9959 60.7256 53.6982C60.7256 58.42 63.3187 59.1611 64.8926 59.1611C71.2808 59.1606 80.0758 47.0317 91.1855 26.0156C89.1487 23.6087 85.8158 22.4049 83.2236 22.2197ZM24.1641 28.9785H30.2744C47.1246 28.9785 52.958 22.0345 52.958 13.1465C52.9578 3.88867 44.9957 2.59283 38.2373 2.59277H31.7559L24.1641 28.9785Z" fill="url(#paint0_linear_1498_12388)"/>
<defs>
<linearGradient id="paint0_linear_1498_12388" x1="58.0476" y1="64.8726" x2="382.786" y2="64.8726" gradientUnits="userSpaceOnUse">
<stop stop-color="#FF004D"/>
<stop offset="1" stop-color="#990070"/>
</linearGradient>
</defs>
</svg>
